<svg width="177" height="256" viewBox="0 0 177 256" fill="none" xmlns="http://www.w3.org/2000/svg">
<path d="M154.941 74.0742C153.517 69.677 149.574 52.8577 146.447 32.1706C143.879 15.1183 159.32 0 179.363 0H190.804C209.192 0 224.082 12.8174 224 28.5851C223.588 108.821 220.905 230.862 212.32 241.202C205.142 249.841 197.216 267.507 191.833 281.221C185.429 297.518 174.235 312.17 159.106 323.456C158.653 323.795 158.201 324.127 157.756 324.444C148.175 331.361 136.553 335.892 124.215 337.727C25.3927 352.408 0.205643 292.457 0.123332 258.416C0.123332 257.809 0.098639 257.202 0.0574837 256.595C-1.10309 237.101 14.8651 194.887 88.64 174.701C163.592 154.204 164.078 99.0738 154.941 74.0742Z" fill="url(#paint0_linear)"/>
<defs>
<linearGradient id="paint0_linear" x1="21.9431" y1="303.188" x2="288.487" y2="-106.717" gradientUnits="userSpaceOnUse">
<stop stop-color="#8389D7" stop-opacity="0.92"/>
<stop offset="1" stop-color="#8E97FD"/>
</linearGradient>
</defs>
</svg>
