<?xml version="1.0" encoding="utf-8"?>
<!-- Generator: Adobe Illustrator 16.0.0, SVG Export Plug-In . SVG Version: 6.00 Build 0)  -->
<!DOCTYPE svg PUBLIC "-//W3C//DTD SVG 1.1//EN" "http://www.w3.org/Graphics/SVG/1.1/DTD/svg11.dtd">
<svg version="1.1" id="Layer_1" xmlns="http://www.w3.org/2000/svg" xmlns:xlink="http://www.w3.org/1999/xlink" x="0px" y="0px"
	 width="307px" height="220px" viewBox="0 0 307 220" enable-background="new 0 0 307 220" xml:space="preserve">
<g>
	<path fill="#FBCC47" d="M0,22.18l65.68,12.07L51.57,0H0V22.18z"/>
	<path fill="#FCD981" d="M65.68,34.25L87.55,0H51.57L65.68,34.25z"/>
	<path fill="#81C9BE" d="M147.52,0H87.55L65.68,34.25l70.56-12.07L147.52,0z"/>
	<path fill="#B3DDD5" d="M199.74,0l12.699,29.2l-76.199-7.02L147.52,0H199.74z"/>
	<path fill="#FBCC47" d="M253.359,0H199.74l12.699,29.2l29.631-7.02L253.359,0z"/>
	<path fill="#FCD981" d="M307,0h-53.641L242.07,22.18L307,36.87V0z"/>
	<path fill="#B3DDD5" d="M307,198.85l-65.68-11.51L255.43,220H307V198.85z"/>
	<path fill="#81C9BE" d="M241.32,187.34L219.45,220h35.979L241.32,187.34z"/>
	<path fill="#FCD981" d="M159.471,220h59.979l21.87-32.66l-70.561,11.51L159.471,220z"/>
	<path fill="#FBCC47" d="M107.26,220l-12.7-27.84l76.2,6.689L159.471,220H107.26z"/>
	<path fill="#B3DDD5" d="M53.64,220h53.62l-12.7-27.84l-29.63,6.689L53.64,220z"/>
	<path fill="#81C9BE" d="M0,220h53.64l11.29-21.15L0,184.84V220z"/>
</g>
</svg>
