<?xml version="1.0" standalone="no"?>
<!DOCTYPE svg PUBLIC "-//W3C//DTD SVG 20010904//EN"
 "http://www.w3.org/TR/2001/REC-SVG-20010904/DTD/svg10.dtd">
<svg version="1.0" xmlns="http://www.w3.org/2000/svg"
 width="536.000000pt" height="536.000000pt" viewBox="0 0 536.000000 536.000000"
 preserveAspectRatio="xMidYMid meet">
<metadata>
Created by potrace 1.11, written by Peter Selinger 2001-2013
</metadata>
<g transform="translate(0.000000,536.000000) scale(0.100000,-0.100000)"
fill="#000000" stroke="none">
<path d="M3160 5256 c-713 -267 -1242 -834 -1849 -1981 -61 -115 -111 -216
-111 -223 0 -34 208 -369 220 -355 4 4 76 89 160 187 656 765 1171 1227 1629
1460 121 61 256 116 351 142 36 9 66 18 67 19 4 3 -101 274 -162 415 -81 190
-172 380 -182 380 -4 -1 -60 -20 -123 -44z"/>
<path d="M3000 4099 c-92 -60 -244 -172 -254 -187 -3 -5 68 -67 157 -139 244
-196 403 -338 608 -543 516 -514 799 -963 889 -1410 12 -57 22 -106 24 -107 3
-4 779 366 789 376 26 26 -216 563 -346 768 -377 595 -929 1015 -1664 1263
l-111 38 -92 -59z"/>
<path d="M500 3419 c-184 -88 -338 -164 -343 -168 -4 -4 13 -53 38 -109 372
-840 890 -1421 1623 -1821 107 -58 322 -160 368 -175 16 -5 53 15 155 83 74
49 162 112 196 139 l63 49 -88 69 c-750 593 -1239 1128 -1491 1633 -62 124
-117 263 -145 370 -12 47 -27 86 -32 87 -5 2 -160 -69 -344 -157z"/>
<path d="M2556 3169 c-178 -42 -347 -216 -385 -397 -24 -114 -8 -249 40 -345
107 -212 349 -332 575 -284 366 78 539 498 333 807 -69 102 -184 184 -303 216
-57 15 -200 17 -260 3z"/>
<path d="M3725 2142 c-449 -445 -730 -679 -1051 -874 -218 -132 -467 -235
-696 -288 -54 -12 -98 -25 -98 -28 0 -2 42 -134 94 -291 52 -157 113 -353 137
-436 23 -82 46 -154 50 -159 18 -21 502 241 754 409 227 151 360 259 540 440
278 277 483 566 715 1009 l73 138 -30 68 c-35 79 -170 310 -181 310 -4 0 -142
-134 -307 -298z"/>
</g>
</svg>
