<?xml version="1.0" encoding="utf-8"?>
<!-- Generator: Adobe Illustrator 16.0.0, SVG Export Plug-In . SVG Version: 6.00 Build 0)  -->
<!DOCTYPE svg PUBLIC "-//W3C//DTD SVG 1.1//EN" "http://www.w3.org/Graphics/SVG/1.1/DTD/svg11.dtd">
<svg version="1.1" id="Layer_1" xmlns="http://www.w3.org/2000/svg" xmlns:xlink="http://www.w3.org/1999/xlink" x="0px" y="0px"
	 width="512px" height="512px" viewBox="0 0 512 512" enable-background="new 0 0 512 512" xml:space="preserve">
<path fill-rule="evenodd" clip-rule="evenodd" fill="#5B71D8" d="M256.658,203.946c29.107,0,52.676,23.677,52.676,52.779
	c0,28.997-23.568,52.675-52.676,52.675c-29.102,0-52.672-23.678-52.672-52.675C203.986,227.623,227.556,203.946,256.658,203.946
	L256.658,203.946z"/>
<path fill-rule="evenodd" clip-rule="evenodd" fill="#5B71D8" d="M207.018,402.58c12.816-7.489,29.106-18.677,40.073-28.024
	C142.286,293.537,86.249,223.271,71.915,157.354c-53.652,25.515-70.595,33.656-70.595,33.656
	C40.85,286.696,102.755,359.46,207.018,402.58L207.018,402.58z"/>
<path fill-rule="evenodd" clip-rule="evenodd" fill="#5B71D8" d="M306.302,110.779c-12.816,7.489-29.106,18.677-40.073,28.024
	c104.805,81.02,160.842,151.285,175.177,217.202C495.057,330.49,512,322.35,512,322.35
	C472.469,226.663,410.564,153.899,306.302,110.779L306.302,110.779z"/>
<path fill-rule="evenodd" clip-rule="evenodd" fill="#5B71D8" d="M401.502,306.301c-7.49-12.814-18.677-29.104-28.024-40.072
	c-81.02,104.806-151.285,160.842-217.202,175.177C181.791,495.058,189.932,512,189.932,512
	C285.617,472.47,358.382,410.564,401.502,306.301L401.502,306.301z"/>
<path fill-rule="evenodd" clip-rule="evenodd" fill="#5B71D8" d="M111.845,207.047c7.489,12.814,18.676,29.104,28.023,40.071
	C220.887,142.313,291.152,86.276,357.07,71.942C331.555,18.29,323.414,1.347,323.414,1.347
	C227.728,40.878,154.964,102.782,111.845,207.047L111.845,207.047z"/>
</svg>
