<?xml version="1.0" encoding="utf-8"?>
<!-- Generator: Adobe Illustrator 16.0.0, SVG Export Plug-In . SVG Version: 6.00 Build 0)  -->
<!DOCTYPE svg PUBLIC "-//W3C//DTD SVG 1.1//EN" "http://www.w3.org/Graphics/SVG/1.1/DTD/svg11.dtd">
<svg version="1.1" id="Layer_1" xmlns="http://www.w3.org/2000/svg" xmlns:xlink="http://www.w3.org/1999/xlink" x="0px" y="0px"
	 width="2225.051px" height="512px" viewBox="0 0 2225.051 512" enable-background="new 0 0 2225.051 512" xml:space="preserve">
<path fill="#5B71D8" d="M777.222,296.163L777.222,296.163c0-0.407,0-0.407,0-0.407V142.001c0-11.245-8.898-20.969-20.152-20.969
	c-11.66,0-20.661,9.725-20.661,20.969v72.933c-13.811-10.017-31.92-16.258-50.332-16.258c-50.739,0-91.147,44.295-91.147,97.487
	c0,52.377,40.408,96.673,91.147,96.673c18.82,0,36.829-6.646,51.147-16.672c1.841,9.303,9.714,16.672,19.846,16.672
	c11.254,0,20.152-9.719,20.152-20.977V296.163z M721.368,256.889c9.41,9.709,15.04,23.724,15.04,39.274
	c0,14.736-5.63,28.743-15.04,38.469c-9.309,10.123-21.282,15.851-35.292,15.851c-13.506,0-25.881-5.728-35.292-15.851
	c-9.414-9.726-15.04-23.732-15.04-38.469c0-15.551,5.626-29.565,15.04-39.274c9.411-10.132,21.786-15.867,35.292-15.867
	C700.086,241.022,712.06,246.757,721.368,256.889L721.368,256.889z"/>
<path fill="#5B71D8" d="M1050.966,240.209c20.56,0,37.954,17.898,37.954,39.997v92.059c0,11.26,9.307,20.571,20.251,20.571
	c10.842,0,19.843-9.312,19.843-20.571v-92.059c0-45.01-34.878-81.53-78.048-81.53c-23.73,0-45.013,10.131-58.922,26.803
	c-14.322-16.672-35.297-26.803-58.924-26.803c-14.322,0-28.134,4.298-40.204,11.66c-2.965-7.362-10.126-11.66-18.002-11.66
	c-10.945,0-19.844,8.897-19.844,20.97V279.8c0,0,0,0,0,0.406v92.059c0,10.447,7.058,18.215,16.057,20.571
	c1.231-0.408,2.255,0,3.787,0c7.876,0,15.444-5.419,18.719-12.48l0,0c0-0.715,0-1.535,0-1.949c0.715-0.715,0.715-1.527,1.126-2.242
	c0,0,0-0.829,0-1.234c0-0.707,0.408-1.942,0.408-2.665l0,0v-92.059c0-22.099,17.289-39.997,37.953-39.997
	c20.97,0,38.261,17.493,38.669,38.875c0,0.301,0,0.715,0,1.121v92.059c0,11.26,9.716,20.571,20.255,20.571l0,0l0,0
	c10.947,0,19.948-9.312,19.948-20.571v-92.059c0-0.406,0-0.82,0-1.121C1012.607,257.702,1029.586,240.209,1050.966,240.209
	L1050.966,240.209z"/>
<path fill="#5B71D8" d="M1275.303,198.676h-9.317v-56.269c0-12.065-8.995-21.375-20.556-21.375c-11.764,0-20.968,9.31-20.968,21.375
	l0,0v56.269h-11.043c-11.562,0-20.57,9.312-20.57,21.376c0,11.667,9.009,21.285,20.57,21.285h11.043v108.421
	c0,23.635,18.612,43.077,41.523,43.077c11.667,0,20.668-9.312,20.668-21.384c0-11.968-9.001-21.693-20.668-21.693l0,0V241.338h9.317
	c11.351,0,21.075-9.618,21.075-21.285C1296.378,207.988,1286.653,198.676,1275.303,198.676L1275.303,198.676z"/>
<path fill="#5B71D8" d="M1425.476,392.836c26.704,0,48.894-8.182,67.198-25.675c8.701-8.084,4.924-19.749,0-25.273
	c-4.801-6.136-20.247-7.362-28.119,1.233c-9.417,7.361-25.479,10.839-39.079,9.71c-12.991-1.22-28.029-8.173-36.007-17.492
	c-6.655-6.645-10.854-16.671-12.688-25.674h119.28c10.537,0,18.411-6.134,19.539-15.445c0.407-0.82,0.407-2.754,0.407-3.477l0,0l0,0
	c0-0.813,0-1.536,0-1.942c-2.965-52.476-41.638-90.125-90.531-90.125c-51.354,0-91.148,44.295-91.556,97.08
	C1334.327,348.54,1374.122,392.428,1425.476,392.836L1425.476,392.836z M1425.476,235.498c32.727,2.77,51.859,25.681,55.546,41.231
	h-106.186C1377.801,260.772,1393.652,237.139,1425.476,235.498L1425.476,235.498z"/>
<path fill="#5B71D8" d="M1596.301,392.836c11.562,0,20.971-9.719,20.971-21.384v-34.163l20.666-21.383l55.143,69.154
	c3.783,5.013,9.822,7.775,15.753,7.775c4.607,0,9.408-1.536,13.194-5.118c9.002-7.362,10.132-20.963,3.07-30.281l-57.895-71.813
	l56.254-58.203c8.295-8.18,8.295-21.79,0-30.279c-7.768-8.182-21.377-8.182-29.257,0l-76.929,79.587V142.407
	c0-11.651-9.409-21.375-20.971-21.375c-11.65,0-20.66,9.725-20.66,21.375v229.045
	C1575.641,383.117,1584.65,392.836,1596.301,392.836L1596.301,392.836z"/>
<path fill="#5B71D8" d="M1863.917,198.676c-14.738,0-28.542,4.712-39.798,12.074c-3.371-7.361-10.538-12.074-18.41-12.074
	c-11.253,0-19.849,9.312-19.849,20.564v60.145l0,0v92.879c0,11.26,8.596,20.571,19.849,20.571c9.815,0,18.004-7.369,19.849-16.672
	c0.82-1.642,0.82-2.771,0.82-3.899l0,0v-92.879c0-21.684,16.569-39.176,37.539-39.176c21.375,0,39.078,17.493,39.078,39.176v92.879
	c0,11.26,9.304,20.571,19.945,20.571c10.839,0,19.434-9.312,19.434-20.571v-92.879
	C1942.374,235.498,1907.495,198.676,1863.917,198.676L1863.917,198.676z"/>
<path fill="#5B71D8" d="M2097.759,393.956L2097.759,393.956c24.763,0,47.269-11.244,62.714-29.459
	c16.874-17.085,26.191-41.126,26.191-68.334l0,0c0-26.39-9.317-49.406-26.191-68.026c-15.445-18.207-37.951-29.46-62.714-29.46
	c-25.877,0-47.764,11.253-64.548,29.46c-16.063,18.62-25.875,41.637-25.875,68.026c0,27.208,9.813,51.249,25.875,68.334
	C2049.995,382.712,2071.882,393.956,2097.759,393.956L2097.759,393.956z M2061.752,255.76c9.317-8.596,21.692-14.738,36.007-14.738
	c13.097,0,25.17,6.142,34.579,14.738c9.408,10.432,14.631,24.446,14.631,40.403l0,0c0,16.68-5.223,30.28-14.631,41.126
	c-9.409,9.309-21.482,14.419-34.579,14.419c-14.314,0-26.689-5.11-36.007-14.419c-8.687-10.846-13.594-24.446-13.594-41.126
	C2048.158,280.206,2053.065,266.191,2061.752,255.76L2061.752,255.76z"/>
<path fill-rule="evenodd" clip-rule="evenodd" fill="#5B71D8" d="M280.492,207.83c27.416,0,49.615,22.301,49.615,49.713
	c0,27.312-22.199,49.615-49.615,49.615c-27.412,0-49.613-22.304-49.613-49.615C230.879,230.131,253.081,207.83,280.492,207.83
	L280.492,207.83z"/>
<path fill-rule="evenodd" clip-rule="evenodd" fill="#5B71D8" d="M233.735,394.925c12.071-7.055,27.415-17.592,37.745-26.396
	c-98.717-76.313-151.498-142.496-165-204.584c-50.535,24.033-66.494,31.701-66.494,31.701
	C77.221,285.772,135.529,354.31,233.735,394.925L233.735,394.925z"/>
<path fill-rule="evenodd" clip-rule="evenodd" fill="#5B71D8" d="M327.251,120.075c-12.071,7.055-27.415,17.592-37.745,26.396
	c98.717,76.313,151.498,142.496,165,204.584C505.041,327.022,521,319.354,521,319.354
	C483.766,229.228,425.457,160.69,327.251,120.075L327.251,120.075z"/>
<path fill-rule="evenodd" clip-rule="evenodd" fill="#5B71D8" d="M416.921,304.238c-7.055-12.071-17.592-27.414-26.396-37.744
	c-76.313,98.717-142.496,151.498-204.584,165c24.033,50.535,31.701,66.494,31.701,66.494
	C307.769,460.754,376.306,402.445,416.921,304.238L416.921,304.238z"/>
<path fill-rule="evenodd" clip-rule="evenodd" fill="#5B71D8" d="M144.091,210.75c7.054,12.07,17.591,27.414,26.396,37.744
	c76.313-98.717,142.496-151.498,204.584-165C351.037,32.959,343.369,17,343.369,17C253.242,54.234,184.705,112.543,144.091,210.75
	L144.091,210.75z"/>
</svg>
