<?xml version="1.0" encoding="utf-8"?>
<!-- Generator: Adobe Illustrator 16.0.0, SVG Export Plug-In . SVG Version: 6.00 Build 0)  -->
<!DOCTYPE svg PUBLIC "-//W3C//DTD SVG 1.1//EN" "http://www.w3.org/Graphics/SVG/1.1/DTD/svg11.dtd">
<svg version="1.1" id="Layer_1" xmlns="http://www.w3.org/2000/svg" xmlns:xlink="http://www.w3.org/1999/xlink" x="0px" y="0px"
	 width="600px" height="512px" viewBox="0 0 600 512" enable-background="new 0 0 600 512" xml:space="preserve">
<g>
	<defs>
		<rect id="SVGID_1_" x="-18.933" width="640.468" height="517.384"/>
	</defs>
	<clipPath id="SVGID_2_">
		<use xlink:href="#SVGID_1_"  overflow="visible"/>
	</clipPath>
	<rect x="-18.933" clip-path="url(#SVGID_2_)" fill="#0059D4" width="640.468" height="517.384"/>
	<path clip-path="url(#SVGID_2_)" fill="#006BFF" d="M367.464-26.078l-0.637-6.152l-395.1,13.642l-4.521,456.225l13.86,17.434
		c0,0,68.061-74.105,128.837-74.105c60.777,0,77.354,43.79,127.08,41.769c49.728-2.021,61.782-14.821,102.469-52.547
		c40.685-37.725,85.389-40.42,130.093,10.105c0,0,49.476,94.651,99.578,42.104c50.104-52.547,90.037,45.473,90.037,45.473
		l23.356-489.089L367.464-26.078z"/>
	<path clip-path="url(#SVGID_2_)" fill="#0059D4" d="M644.343,127.686c-1.004-42.464-15.57-146.21-15.57-146.21L384.958-35.278
		c-0.974-3.327-1.556-5.143-1.556-5.143L-7.631-48.505l-39.933,11.116l21.348,74.105c0,0,46.713,80.842,99.454,82.189
		c52.741,1.347,107.993-52.547,165.254-49.852c57.262,2.694,73.335,105.768,83.884,155.619
		c10.548,49.852,39.18,62.652,71.827-33.684c8.44-24.902,11.785-52.391,12.121-79.468v-0.001c0,0,0-0.014,0-0.02
		c0.004-0.29,0.009-0.58,0.012-0.869c0.174-7.24,3.03-56.745,48.644-61.114c49.225-4.715,56.258,77.496,101.464,64.348
		c45.206-13.148,73.334,39.4,76.851,82.515C636.808,239.494,645.347,170.15,644.343,127.686z"/>
	<path clip-path="url(#SVGID_2_)" fill="#006BFF" d="M146.95,59.621c0,0,5.902-9.769,9.669-3.2s1.507,13.811,0,16.337
		c-1.507,2.526-6.53,0.842-8.54-2.021C146.07,67.873,144.563,64.841,146.95,59.621z"/>
	<path clip-path="url(#SVGID_2_)" fill="#006BFF" d="M267.625,24.084c4.521-0.673,11.05,3.368,11.428,9.263
		c0.376,5.895,0.376,16.337-5.4,18.526c-5.775,2.189-14.314-2.021-15.32-7.916C257.328,38.063,260.593,25.095,267.625,24.084z"/>
	<path clip-path="url(#SVGID_2_)" fill="#0059D4" d="M213,108.63c0,0,3.518-8.42,11.176-8.42c7.66,0,10.549,9.263,10.423,15.831
		c-0.127,6.568-2.261,11.284-9.544,11.621c-7.282,0.337-11.05-2.863-12.055-9.6C213,118.062,210.986,111.979,213,108.63z"/>
	<path clip-path="url(#SVGID_2_)" fill="#0059D4" d="M463.195,308.882c0,0,3.518-8.42,11.177-8.42
		c7.658,0,10.548,9.263,10.422,15.831s-2.261,11.283-9.544,11.621c-7.282,0.337-11.051-2.863-12.055-9.6
		C463.195,318.314,461.179,312.231,463.195,308.882z"/>
	<path clip-path="url(#SVGID_2_)" fill="#006BFF" d="M568.847,78.483c0,0,3.517-8.421,11.176-8.421
		c7.66,0,10.548,9.263,10.423,15.831c-0.126,6.568-2.261,11.284-9.544,11.621c-7.282,0.337-11.05-2.863-12.055-9.6
		C568.847,87.915,566.833,81.832,568.847,78.483z"/>
	<path clip-path="url(#SVGID_2_)" fill="#0059D4" d="M242.259,134.062c0,0,9.418-19.176,18.46-20.114
		c9.041-0.938,20.845,5.967,22.226,21.125c1.382,15.158-4.395,30.315-15.446,32.673c-11.049,2.358-25.239-4.884-27.249-16.674
		C238.24,139.283,242.259,134.062,242.259,134.062z"/>
	<path clip-path="url(#SVGID_2_)" fill="#0059D4" d="M260.028,195.029c0,0,11.302-8.336,14.881-2.905
		c3.577,5.432,3.295,14.718,0.753,19.296c-2.543,4.578-6.875,3.885-11.489,0C259.556,207.535,253.906,201.598,260.028,195.029z"/>
	<path clip-path="url(#SVGID_2_)" fill="#0059D4" d="M501.557,361.16c0,0,11.302-8.337,14.881-2.905
		c3.578,5.432,3.296,14.718,0.753,19.296s-6.875,3.885-11.488,0C501.086,373.666,495.435,367.729,501.557,361.16z"/>
	<path clip-path="url(#SVGID_2_)" fill="#0059D4" d="M283.331,357.123c0,0,17.457-12.878,22.986-4.488
		c5.528,8.39,5.091,22.734,1.163,29.805c-3.928,7.071-10.619,6.002-17.747,0C282.604,376.438,273.875,367.269,283.331,357.123z"/>
	<path clip-path="url(#SVGID_2_)" fill="#006BFF" d="M537.924,46.736c0,0,11.302-8.337,14.881-2.905
		c3.578,5.432,3.297,14.718,0.754,19.295c-2.543,4.578-6.876,3.885-11.491,0C537.454,59.241,531.802,53.305,537.924,46.736z"/>
	<path clip-path="url(#SVGID_2_)" fill="#0059D4" d="M86.925,316.544c0,0,5.651-19.452,30.137-22.736
		c24.487-3.284,28.254,12.631,28.819,22.736c0.565,10.105-5.085,31.073-24.675,33.095
		C101.618,351.659,82.781,333.976,86.925,316.544z"/>
	<path clip-path="url(#SVGID_2_)" fill="#006BFF" d="M357.561,116.416c0,0,3.872-13.603,20.652-15.9
		c16.78-2.296,19.361,8.833,19.749,15.9c0.386,7.066-3.485,21.729-16.909,23.143C367.628,140.972,354.72,128.605,357.561,116.416z"
		/>
	<path clip-path="url(#SVGID_2_)" fill="#0059D4" d="M-3.886,138.204c0,0,3.166-10.896,16.882-12.736
		c13.717-1.839,15.827,7.076,16.144,12.736c0.316,5.661-2.848,17.406-13.822,18.538C4.344,157.875-6.207,147.968-3.886,138.204z"/>
	<path clip-path="url(#SVGID_2_)" fill="#0059D4" d="M70.538,306.944c0,0,4.897,8.814,2.072,14.639s-9.041,2.512-12.997,0
		c-3.956-2.513-7.158-7.061,0-14.639C66.771,299.365,70.538,306.944,70.538,306.944z"/>
	<path clip-path="url(#SVGID_2_)" fill="#0059D4" d="M575.902,157.818c0,0,1.758,15.423-13.179,29.815
		c-14.936,14.392-21.807,5.976-24.987-0.282c-3.179-6.259-5.359-22.663,6.757-33.784
		C556.612,142.446,573.731,144.459,575.902,157.818z"/>
	<path clip-path="url(#SVGID_2_)" fill="#0059D4" d="M589.184,155.823c0,0-5.627-3.253-5.42-8.438
		c0.207-5.186,5.154-6.155,8.414-6.511c3.26-0.354,6.6,0.985,4.077,9.476C593.731,158.843,589.184,155.823,589.184,155.823z"/>
</g>
</svg>
