<?xml version="1.0" encoding="utf-8"?>
<!-- Generator: Adobe Illustrator 16.0.0, SVG Export Plug-In . SVG Version: 6.00 Build 0)  -->
<!DOCTYPE svg PUBLIC "-//W3C//DTD SVG 1.1//EN" "http://www.w3.org/Graphics/SVG/1.1/DTD/svg11.dtd">
<svg version="1.1" id="Layer_1" xmlns="http://www.w3.org/2000/svg" xmlns:xlink="http://www.w3.org/1999/xlink" x="0px" y="0px"
	 width="600px" height="161.703px" viewBox="0 0 600 161.703" enable-background="new 0 0 600 161.703" xml:space="preserve">
<g>
	<defs>
		<rect id="SVGID_3_" width="600" height="161.703"/>
	</defs>
	<clipPath id="SVGID_2_">
		<use xlink:href="#SVGID_3_"  overflow="visible"/>
	</clipPath>
	<g clip-path="url(#SVGID_2_)">
		<path fill="#FFFFFF" d="M689.908,20.703l-76.807,152.416l-625.011-4.092v-54.048c0,0-4.889-70.708,47.817-23.275
			c26.667,23.999,35.333-34,73.871-38.805c31.209-3.891,50.173,41.97,75.595,44.03c38.155,3.093,50.241-19.215,78.195-55.568
			c25.391-33.019,68.339-47.658,91.339,7.342c0,0,64.774,123.149,106.475,35.275c3.188-6.719,37.673-120.656,95.525-40.275
			C577.908,72.881,638.908-108.297,689.908,20.703z"/>
	</g>
</g>
</svg>
